<?xml version="1.0" encoding="utf-8"?>
<!-- Generator: Adobe Illustrator 18.0.0, SVG Export Plug-In . SVG Version: 6.00 Build 0)  -->
<!DOCTYPE svg PUBLIC "-//W3C//DTD SVG 1.1//EN" "http://www.w3.org/Graphics/SVG/1.1/DTD/svg11.dtd">
<svg version="1.1" id="Layer_1" xmlns="http://www.w3.org/2000/svg" xmlns:xlink="http://www.w3.org/1999/xlink" x="0px" y="0px"
	 viewBox="0 0 650 696" enable-background="new 0 0 650 696" xml:space="preserve">
<g>
	<line fill="none" stroke="#010101" stroke-miterlimit="10" x1="118.4" y1="638.5" x2="108.6" y2="681"/>
	<line fill="none" stroke="#010101" stroke-miterlimit="10" x1="142" y1="423.9" x2="188.1" y2="473.9"/>
	<line fill="none" stroke="#010101" stroke-miterlimit="10" x1="16.4" y1="34.7" x2="37.2" y2="84.7"/>
	<line fill="none" stroke="#010101" stroke-miterlimit="10" x1="44.4" y1="136.9" x2="37.2" y2="84.7"/>
	<line fill="none" stroke="#010101" stroke-miterlimit="10" x1="33.7" y1="201.5" x2="44.4" y2="136.9"/>
	<line fill="none" stroke="#010101" stroke-miterlimit="10" x1="72.8" y1="185.6" x2="44.4" y2="136.9"/>
	<line fill="none" stroke="#010101" stroke-miterlimit="10" x1="105.5" y1="144.1" x2="44.4" y2="136.9"/>
	<line fill="none" stroke="#010101" stroke-miterlimit="10" x1="105.5" y1="238.5" x2="72.8" y2="185.6"/>
	<line fill="none" stroke="#010101" stroke-miterlimit="10" x1="97.6" y1="289.6" x2="105.5" y2="238.5"/>
	<line fill="none" stroke="#010101" stroke-miterlimit="10" x1="67.7" y1="340.1" x2="72.8" y2="185.6"/>
	<line fill="none" stroke="#010101" stroke-miterlimit="10" x1="125.7" y1="340.1" x2="97.6" y2="289.6"/>
	<line fill="none" stroke="#010101" stroke-miterlimit="10" x1="67.7" y1="340.1" x2="97.6" y2="289.6"/>
	<line fill="none" stroke="#010101" stroke-miterlimit="10" x1="16.4" y1="32.7" x2="58.3" y2="37.8"/>
	<line fill="none" stroke="#010101" stroke-miterlimit="10" x1="83.1" y1="79.8" x2="58.3" y2="37.8"/>
	<line fill="none" stroke="#010101" stroke-miterlimit="10" x1="129" y1="382.8" x2="125.7" y2="340.1"/>
	<line fill="none" stroke="#010101" stroke-miterlimit="10" x1="203" y1="394.6" x2="125.7" y2="340.1"/>
	<line fill="none" stroke="#010101" stroke-miterlimit="10" x1="188.5" y1="340.1" x2="125.7" y2="340.1"/>
	<line fill="none" stroke="#010101" stroke-miterlimit="10" x1="322.8" y1="370.3" x2="188.5" y2="340.1"/>
	<line fill="none" stroke="#010101" stroke-miterlimit="10" x1="297.7" y1="260.7" x2="278.1" y2="212.1"/>
	<line fill="none" stroke="#010101" stroke-miterlimit="10" x1="322.8" y1="167.5" x2="267.3" y2="167.5"/>
	<line fill="none" stroke="#010101" stroke-miterlimit="10" x1="341.9" y1="106.4" x2="292.5" y2="118.7"/>
	<line fill="none" stroke="#010101" stroke-miterlimit="10" x1="285.3" y1="76" x2="341.9" y2="106.4"/>
	<line fill="none" stroke="#010101" stroke-miterlimit="10" x1="285.3" y1="76" x2="292.5" y2="118.7"/>
	<line fill="none" stroke="#010101" stroke-miterlimit="10" x1="203" y1="47" x2="285.3" y2="76"/>
	<line fill="none" stroke="#010101" stroke-miterlimit="10" x1="121.7" y1="49.2" x2="169.1" y2="99.2"/>
	<line fill="none" stroke="#010101" stroke-miterlimit="10" x1="203" y1="47" x2="121.7" y2="49.2"/>
	<line fill="none" stroke="#010101" stroke-miterlimit="10" x1="58.3" y1="37.8" x2="121.7" y2="49.2"/>
	<line fill="none" stroke="#010101" stroke-miterlimit="10" x1="229.8" y1="188.3" x2="169.1" y2="99.2"/>
	<line fill="none" stroke="#010101" stroke-miterlimit="10" x1="203" y1="47" x2="218.9" y2="118.7"/>
	<line fill="none" stroke="#010101" stroke-miterlimit="10" x1="169.1" y1="99.2" x2="218.9" y2="118.7"/>
	<line fill="none" stroke="#010101" stroke-miterlimit="10" x1="242.9" y1="224" x2="229" y2="187"/>
	<line fill="none" stroke="#010101" stroke-miterlimit="10" x1="181.3" y1="219.6" x2="169.1" y2="99.2"/>
	<line fill="none" stroke="#010101" stroke-miterlimit="10" x1="129" y1="194.2" x2="181.3" y2="219.6"/>
	<line fill="none" stroke="#010101" stroke-miterlimit="10" x1="105.5" y1="144.1" x2="129" y2="194.2"/>
	<line fill="none" stroke="#010101" stroke-miterlimit="10" x1="105.5" y1="238.5" x2="140.2" y2="254.9"/>
	<line fill="none" stroke="#010101" stroke-miterlimit="10" x1="191.2" y1="286.7" x2="140.2" y2="254.9"/>
	<line fill="none" stroke="#010101" stroke-miterlimit="10" x1="233.3" y1="275.2" x2="194" y2="286.7"/>
	<line fill="none" stroke="#010101" stroke-miterlimit="10" x1="267.3" y1="167.5" x2="218.9" y2="118.7"/>
	<line fill="none" stroke="#010101" stroke-miterlimit="10" x1="278.1" y1="212.1" x2="228.4" y2="187"/>
	<line fill="none" stroke="#010101" stroke-miterlimit="10" x1="32.4" y1="362.4" x2="37.6" y2="404.3"/>
	<line fill="none" stroke="#010101" stroke-miterlimit="10" x1="79.6" y1="429.1" x2="37.6" y2="404.3"/>
	<line fill="none" stroke="#010101" stroke-miterlimit="10" x1="260.4" y1="643.7" x2="211.8" y2="624"/>
	<line fill="none" stroke="#010101" stroke-miterlimit="10" x1="167.3" y1="668.8" x2="167.3" y2="613.2"/>
	<line fill="none" stroke="#010101" stroke-miterlimit="10" x1="75.7" y1="631.3" x2="118.4" y2="638.5"/>
	<line fill="none" stroke="#010101" stroke-miterlimit="10" x1="46.8" y1="548.9" x2="75.7" y2="631.3"/>
	<line fill="none" stroke="#010101" stroke-miterlimit="10" x1="48.9" y1="467.7" x2="98.9" y2="515.1"/>
	<line fill="none" stroke="#010101" stroke-miterlimit="10" x1="46.8" y1="548.9" x2="48.9" y2="467.7"/>
	<line fill="none" stroke="#010101" stroke-miterlimit="10" x1="37.6" y1="404.3" x2="48.9" y2="467.7"/>
	<line fill="none" stroke="#010101" stroke-miterlimit="10" x1="188.1" y1="575.8" x2="98.9" y2="515.1"/>
	<line fill="none" stroke="#010101" stroke-miterlimit="10" x1="46.8" y1="548.9" x2="118.4" y2="564.8"/>
	<line fill="none" stroke="#010101" stroke-miterlimit="10" x1="98.9" y1="515.1" x2="118.4" y2="564.8"/>
	<line fill="none" stroke="#010101" stroke-miterlimit="10" x1="223.8" y1="588.9" x2="186.8" y2="574.9"/>
	<line fill="none" stroke="#010101" stroke-miterlimit="10" x1="219.4" y1="527.2" x2="98.9" y2="515.1"/>
	<line fill="none" stroke="#010101" stroke-miterlimit="10" x1="167.3" y1="613.2" x2="118.4" y2="564.8"/>
	<line fill="none" stroke="#010101" stroke-miterlimit="10" x1="211.8" y1="624" x2="186.8" y2="574.4"/>
	<line fill="none" stroke="#010101" stroke-miterlimit="10" x1="33.7" y1="201.5" x2="32.4" y2="282.4"/>
	<line fill="none" stroke="#010101" stroke-miterlimit="10" x1="32.4" y1="282.4" x2="34.4" y2="362.4"/>
	<line fill="none" stroke="#010101" stroke-miterlimit="10" x1="118.4" y1="638.5" x2="167.3" y2="613.2"/>
	<line fill="none" stroke="#010101" stroke-miterlimit="10" x1="145.2" y1="466.7" x2="142" y2="423.9"/>
	<line fill="none" stroke="#010101" stroke-miterlimit="10" x1="79.6" y1="429.1" x2="142" y2="423.9"/>
	<line fill="none" stroke="#010101" stroke-miterlimit="10" x1="129" y1="382.8" x2="142" y2="423.9"/>
	<line fill="none" stroke="#010101" stroke-miterlimit="10" x1="188.5" y1="340.1" x2="260.4" y2="429.1"/>
	<line fill="none" stroke="#010101" stroke-miterlimit="10" x1="260.4" y1="429.1" x2="297.7" y2="488.8"/>
	<line fill="none" stroke="#010101" stroke-miterlimit="10" x1="260.4" y1="429.1" x2="315.6" y2="436.4"/>
	<line fill="none" stroke="#010101" stroke-miterlimit="10" x1="322.8" y1="370.3" x2="391" y2="423.9"/>
	<line fill="none" stroke="#010101" stroke-miterlimit="10" x1="322.8" y1="370.3" x2="297.7" y2="404.3"/>
	<line fill="none" stroke="#010101" stroke-miterlimit="10" x1="315.6" y1="436.4" x2="361.9" y2="491.4"/>
	<line fill="none" stroke="#010101" stroke-miterlimit="10" x1="262.1" y1="344.4" x2="285.8" y2="297.6"/>
	<line fill="none" stroke="#010101" stroke-miterlimit="10" x1="319.8" y1="312.5" x2="336.9" y2="276.8"/>
	<line fill="none" stroke="#010101" stroke-miterlimit="10" x1="285.8" y1="297.6" x2="337.4" y2="276.9"/>
	<line fill="none" stroke="#010101" stroke-miterlimit="10" x1="297.7" y1="260.7" x2="285.8" y2="297.6"/>
	<line fill="none" stroke="#010101" stroke-miterlimit="10" x1="297.7" y1="260.7" x2="336.9" y2="276.8"/>
	<circle fill="#E4ACC1" stroke="#010101" stroke-miterlimit="10" cx="16.4" cy="34.7" r="9.8"/>
	<circle fill="#E4ACC1" stroke="#010101" stroke-miterlimit="10" cx="58.3" cy="37.8" r="9.8"/>
	<circle fill="#E4ACC1" stroke="#010101" stroke-miterlimit="10" cx="37.2" cy="84.7" r="9.8"/>
	<circle fill="#E4ACC1" stroke="#010101" stroke-miterlimit="10" cx="83.1" cy="79.8" r="9.8"/>
	<circle fill="#E4ACC1" stroke="#010101" stroke-miterlimit="10" cx="121.7" cy="49.2" r="9.8"/>
	<circle fill="#E4ACC1" stroke="#010101" stroke-miterlimit="10" cx="203" cy="47" r="9.8"/>
	<circle fill="#E4ACC1" stroke="#010101" stroke-miterlimit="10" cx="285.3" cy="76" r="9.8"/>
	<circle fill="#E4ACC1" stroke="#010101" stroke-miterlimit="10" cx="341.9" cy="106.4" r="9.8"/>
	<circle fill="#E4ACC1" stroke="#010101" stroke-miterlimit="10" cx="292.5" cy="118.7" r="9.8"/>
	<circle fill="#E4ACC1" stroke="#010101" stroke-miterlimit="10" cx="218.9" cy="118.7" r="9.8"/>
	<circle fill="#E4ACC1" stroke="#010101" stroke-miterlimit="10" cx="169.1" cy="99.2" r="9.8"/>
	<circle fill="#E4ACC1" stroke="#010101" stroke-miterlimit="10" cx="44.4" cy="136.9" r="9.8"/>
	<circle fill="#E4ACC1" stroke="#010101" stroke-miterlimit="10" cx="105.5" cy="144.1" r="9.8"/>
	<circle fill="#E4ACC1" stroke="#010101" stroke-miterlimit="10" cx="267.3" cy="167.5" r="9.8"/>
	<circle fill="#E4ACC1" stroke="#010101" stroke-miterlimit="10" cx="322.8" cy="167.5" r="9.8"/>
	<circle fill="#E4ACC1" stroke="#010101" stroke-miterlimit="10" cx="228.4" cy="187" r="9.8"/>
	<circle fill="#E4ACC1" stroke="#010101" stroke-miterlimit="10" cx="181.3" cy="219.6" r="9.8"/>
	<circle fill="#E4ACC1" stroke="#010101" stroke-miterlimit="10" cx="129" cy="192.9" r="9.8"/>
	<circle fill="#E4ACC1" stroke="#010101" stroke-miterlimit="10" cx="72.8" cy="185.6" r="9.8"/>
	<circle fill="#E4ACC1" stroke="#010101" stroke-miterlimit="10" cx="242.9" cy="224" r="9.8"/>
	<circle fill="#E4ACC1" stroke="#010101" stroke-miterlimit="10" cx="278.1" cy="212.1" r="9.8"/>
	<circle fill="#E4ACC1" stroke="#010101" stroke-miterlimit="10" cx="297.7" cy="260.7" r="9.8"/>
	<circle fill="#E4ACC1" stroke="#010101" stroke-miterlimit="10" cx="33.7" cy="201.5" r="9.8"/>
	<circle fill="#E4ACC1" stroke="#010101" stroke-miterlimit="10" cx="105.5" cy="238.5" r="9.8"/>
	<circle fill="#E4ACC1" stroke="#010101" stroke-miterlimit="10" cx="32.4" cy="282.4" r="9.8"/>
	<circle fill="#E4ACC1" stroke="#010101" stroke-miterlimit="10" cx="97.6" cy="289.6" r="9.8"/>
	<circle fill="#E4ACC1" stroke="#010101" stroke-miterlimit="10" cx="140.2" cy="254.9" r="9.8"/>
	<circle fill="#E4ACC1" stroke="#010101" stroke-miterlimit="10" cx="191.2" cy="286.7" r="9.8"/>
	<circle fill="#E4ACC1" stroke="#010101" stroke-miterlimit="10" cx="233.3" cy="275.2" r="9.8"/>
	<circle fill="#E4ACC1" stroke="#010101" stroke-miterlimit="10" cx="285.8" cy="297.6" r="9.8"/>
	<circle fill="#E4ACC1" stroke="#010101" stroke-miterlimit="10" cx="337.4" cy="276.9" r="9.8"/>
	<circle fill="#E4ACC1" stroke="#010101" stroke-miterlimit="10" cx="319.8" cy="312.5" r="9.8"/>
	<circle fill="#E4ACC1" stroke="#010101" stroke-miterlimit="10" cx="262.1" cy="344.4" r="9.8"/>
	<circle fill="#E4ACC1" stroke="#010101" stroke-miterlimit="10" cx="125.7" cy="340.1" r="9.8"/>
	<circle fill="#E4ACC1" stroke="#010101" stroke-miterlimit="10" cx="67.7" cy="340.1" r="9.8"/>
	<circle fill="#E4ACC1" stroke="#010101" stroke-miterlimit="10" cx="34.4" cy="362.4" r="9.8"/>
	<circle fill="#E4ACC1" stroke="#010101" stroke-miterlimit="10" cx="37.6" cy="404.3" r="9.8"/>
	<circle fill="#E4ACC1" stroke="#010101" stroke-miterlimit="10" cx="188.5" cy="340.1" r="9.8"/>
	<circle fill="#E4ACC1" stroke="#010101" stroke-miterlimit="10" cx="129" cy="382.8" r="9.8"/>
	<circle fill="#E4ACC1" stroke="#010101" stroke-miterlimit="10" cx="203" cy="394.6" r="9.8"/>
	<circle fill="#E4ACC1" stroke="#010101" stroke-miterlimit="10" cx="322.8" cy="370.3" r="9.8"/>
	<circle fill="#E4ACC1" stroke="#010101" stroke-miterlimit="10" cx="391" cy="423.9" r="9.8"/>
	<circle fill="#E4ACC1" stroke="#010101" stroke-miterlimit="10" cx="297.7" cy="404.4" r="9.8"/>
	<circle fill="#E4ACC1" stroke="#010101" stroke-miterlimit="10" cx="260.4" cy="429.1" r="9.8"/>
	<circle fill="#E4ACC1" stroke="#010101" stroke-miterlimit="10" cx="315.6" cy="436.4" r="9.8"/>
	<circle fill="#E4ACC1" stroke="#010101" stroke-miterlimit="10" cx="142" cy="423.9" r="9.8"/>
	<circle fill="#E4ACC1" stroke="#010101" stroke-miterlimit="10" cx="79.6" cy="429.1" r="9.8"/>
	<circle fill="#E4ACC1" stroke="#010101" stroke-miterlimit="10" cx="297.7" cy="491.4" r="9.8"/>
	<circle fill="#E4ACC1" stroke="#010101" stroke-miterlimit="10" cx="188.1" cy="473.9" r="9.8"/>
	<circle fill="#E4ACC1" stroke="#010101" stroke-miterlimit="10" cx="361.9" cy="491.4" r="9.8"/>
	<circle fill="#E4ACC1" stroke="#010101" stroke-miterlimit="10" cx="145.2" cy="466.7" r="9.8"/>
	<circle fill="#E4ACC1" stroke="#010101" stroke-miterlimit="10" cx="48.9" cy="467.7" r="9.8"/>
	<circle fill="#E4ACC1" stroke="#010101" stroke-miterlimit="10" cx="98.9" cy="515.1" r="9.8"/>
	<circle fill="#E4ACC1" stroke="#010101" stroke-miterlimit="10" cx="46.8" cy="548.9" r="9.8"/>
	<circle fill="#E4ACC1" stroke="#010101" stroke-miterlimit="10" cx="118.4" cy="564.8" r="9.8"/>
	<circle fill="#E4ACC1" stroke="#010101" stroke-miterlimit="10" cx="188.1" cy="574.4" r="9.8"/>
	<circle fill="#E4ACC1" stroke="#010101" stroke-miterlimit="10" cx="219.4" cy="527.2" r="9.8"/>
	<circle fill="#E4ACC1" stroke="#010101" stroke-miterlimit="10" cx="223.8" cy="588.9" r="9.8"/>
	<circle fill="#E4ACC1" stroke="#010101" stroke-miterlimit="10" cx="167.3" cy="613.2" r="9.8"/>
	<circle fill="#E4ACC1" stroke="#010101" stroke-miterlimit="10" cx="75.7" cy="631.3" r="9.8"/>
	<circle fill="#E4ACC1" stroke="#010101" stroke-miterlimit="10" cx="118.4" cy="638.5" r="9.8"/>
	<circle fill="#E4ACC1" stroke="#010101" stroke-miterlimit="10" cx="108.6" cy="681" r="9.8"/>
	<circle fill="#E4ACC1" stroke="#010101" stroke-miterlimit="10" cx="167.3" cy="668.8" r="9.8"/>
	<circle fill="#E4ACC1" stroke="#010101" stroke-miterlimit="10" cx="211.8" cy="624" r="9.8"/>
	<circle fill="#E4ACC1" stroke="#010101" stroke-miterlimit="10" cx="260.4" cy="643.7" r="9.8"/>
	<text transform="matrix(1 0 0 1 13.3335 35)" font-family="'MyriadPro-Regular'" font-size="12">1</text>
	<text transform="matrix(1 0 0 1 54.6665 37.6665)" font-family="'MyriadPro-Regular'" font-size="12">2</text>
	<text transform="matrix(1 0 0 1 37.1943 84.6802)" font-family="'MyriadPro-Regular'" font-size="12">3</text>
	<text transform="matrix(1 0 0 1 119.3335 47.6665)" font-family="'MyriadPro-Regular'" font-size="12">4</text>
	<text transform="matrix(1 0 0 1 83.1479 79.813)" font-family="'MyriadPro-Regular'" font-size="12">5</text>
	<text transform="matrix(1 0 0 1 202 45)" font-family="'MyriadPro-Regular'" font-size="12">6</text>
	<text transform="matrix(1 0 0 1 172.6665 95.6665)" font-family="'MyriadPro-Regular'" font-size="12">7</text>
	<text transform="matrix(1 0 0 1 43 139)" font-family="'MyriadPro-Regular'" font-size="12">8</text>
	<text transform="matrix(1 0 0 1 105.4512 144.1187)" font-family="'MyriadPro-Regular'" font-size="12">9</text>
	<text transform="matrix(1 0 0 1 282 72.3335)" font-family="'MyriadPro-Regular'" font-size="12">10</text>
	<text transform="matrix(1 0 0 1 214 115)" font-family="'MyriadPro-Regular'" font-size="12">11</text>
	<text transform="matrix(1 0 0 1 343.333 103.6665)" font-family="'MyriadPro-Regular'" font-size="12">12</text>
	<text transform="matrix(1 0 0 1 292.5381 118.6714)" font-family="'MyriadPro-Regular'" font-size="12">13</text>
	<text transform="matrix(1 0 0 1 30.6665 201.6665)" font-family="'MyriadPro-Regular'" font-size="12">14</text>
	<text transform="matrix(1 0 0 1 72.7554 185.6143)" font-family="'MyriadPro-Regular'" font-size="12">15</text>
	<text transform="matrix(1 0 0 1 128.9648 192.8501)" font-family="'MyriadPro-Regular'" font-size="12">16</text>
	<text transform="matrix(1 0 0 1 267.2524 167.5439)" font-family="'MyriadPro-Regular'" font-size="12">17</text>
	<text transform="matrix(1 0 0 1 320 166.3335)" font-family="'MyriadPro-Regular'" font-size="12">18</text>
	<text transform="matrix(1 0 0 1 228.4316 187.0039)" font-family="'MyriadPro-Regular'" font-size="12">19</text>
	<text transform="matrix(1 0 0 1 180.6665 217.6665)" font-family="'MyriadPro-Regular'" font-size="12">20</text>
	<text transform="matrix(1 0 0 1 106 236.3335)" font-family="'MyriadPro-Regular'" font-size="12">21</text>
	<text transform="matrix(1 0 0 1 36 283)" font-family="'MyriadPro-Regular'" font-size="12">22</text>
	<text transform="matrix(1 0 0 1 274.6665 211.6665)" font-family="'MyriadPro-Regular'" font-size="12">23</text>
	<text transform="matrix(1 0 0 1 242.9038 224.0088)" font-family="'MyriadPro-Regular'" font-size="12">24</text>
	<text transform="matrix(1 0 0 1 139.3335 251.6665)" font-family="'MyriadPro-Regular'" font-size="12">25</text>
	<text transform="matrix(1 0 0 1 96 287.6665)" font-family="'MyriadPro-Regular'" font-size="12">26</text>
	<text transform="matrix(1 0 0 1 194 289)" font-family="'MyriadPro-Regular'" font-size="12">27</text>
	<text transform="matrix(1 0 0 1 233.3262 275.1514)" font-family="'MyriadPro-Regular'" font-size="12">28</text>
	<text transform="matrix(1 0 0 1 297.6909 260.6792)" font-family="'MyriadPro-Regular'" font-size="12">29</text>
	<text transform="matrix(1 0 0 1 66.6665 342.3335)" font-family="'MyriadPro-Regular'" font-size="12">30</text>
	<text transform="matrix(1 0 0 1 284.6665 295.6665)" font-family="'MyriadPro-Regular'" font-size="12">31</text>
	<text transform="matrix(1 0 0 1 337.333 279.6665)" font-family="'MyriadPro-Regular'" font-size="12">32</text>
	<text transform="matrix(1 0 0 1 122.6665 341)" font-family="'MyriadPro-Regular'" font-size="12">33</text>
	<text transform="matrix(1 0 0 1 36 363)" font-family="'MyriadPro-Regular'" font-size="12">34</text>
	<text transform="matrix(1 0 0 1 188.4868 340.0791)" font-family="'MyriadPro-Regular'" font-size="12">35</text>
	<text transform="matrix(1 0 0 1 319.8452 312.5)" font-family="'MyriadPro-Regular'" font-size="12">36</text>
	<text transform="matrix(1 0 0 1 260 342.3335)" font-family="'MyriadPro-Regular'" font-size="12">37</text>
	<text transform="matrix(1 0 0 1 35.3335 406.333)" font-family="'MyriadPro-Regular'" font-size="12">38</text>
	<text transform="matrix(1 0 0 1 127.3335 385)" font-family="'MyriadPro-Regular'" font-size="12">39</text>
	<text transform="matrix(1 0 0 1 319.3335 370.333)" font-family="'MyriadPro-Regular'" font-size="12">40</text>
	<text transform="matrix(1 0 0 1 202 397.667)" font-family="'MyriadPro-Regular'" font-size="12">41</text>
	<text transform="matrix(1 0 0 1 82 433.667)" font-family="'MyriadPro-Regular'" font-size="12">42</text>
	<text transform="matrix(1 0 0 1 142.0093 423.9297)" font-family="'MyriadPro-Regular'" font-size="12">43</text>
	<text transform="matrix(1 0 0 1 297.6909 404.4443)" font-family="'MyriadPro-Regular'" font-size="12">44</text>
	<text transform="matrix(1 0 0 1 391.333 426.333)" font-family="'MyriadPro-Regular'" font-size="12">45</text>
	<text transform="matrix(1 0 0 1 260 431.667)" font-family="'MyriadPro-Regular'" font-size="12">46</text>
	<text transform="matrix(1 0 0 1 184.6665 476.333)" font-family="'MyriadPro-Regular'" font-size="12">47</text>
	<text transform="matrix(1 0 0 1 142.6665 469.667)" font-family="'MyriadPro-Regular'" font-size="12">48</text>
	<text transform="matrix(1 0 0 1 48.9165 467.708)" font-family="'MyriadPro-Regular'" font-size="12">49</text>
	<text transform="matrix(1 0 0 1 315.603 436.3623)" font-family="'MyriadPro-Regular'" font-size="12">50</text>
	<text transform="matrix(1 0 0 1 98 517.667)" font-family="'MyriadPro-Regular'" font-size="12">51</text>
	<text transform="matrix(1 0 0 1 365.333 495.667)" font-family="'MyriadPro-Regular'" font-size="12">52</text>
	<text transform="matrix(1 0 0 1 299.3335 494.333)" font-family="'MyriadPro-Regular'" font-size="12">53</text>
	<text transform="matrix(1 0 0 1 216.6665 529)" font-family="'MyriadPro-Regular'" font-size="12">54</text>
	<text transform="matrix(1 0 0 1 49.3335 552.333)" font-family="'MyriadPro-Regular'" font-size="12">55</text>
	<text transform="matrix(1 0 0 1 116 563.667)" font-family="'MyriadPro-Regular'" font-size="12">56</text>
	<text transform="matrix(1 0 0 1 188.061 574.4102)" font-family="'MyriadPro-Regular'" font-size="12">57</text>
	<text transform="matrix(1 0 0 1 226 586.333)" font-family="'MyriadPro-Regular'" font-size="12">58</text>
	<text transform="matrix(1 0 0 1 162.6665 617.667)" font-family="'MyriadPro-Regular'" font-size="12">59</text>
	<text transform="matrix(1 0 0 1 74 634.333)" font-family="'MyriadPro-Regular'" font-size="12">60</text>
	<text transform="matrix(1 0 0 1 120.6665 640.333)" font-family="'MyriadPro-Regular'" font-size="12">61</text>
	<text transform="matrix(1 0 0 1 208.6665 625.667)" font-family="'MyriadPro-Regular'" font-size="12">62</text>
	<text transform="matrix(1 0 0 1 260.6665 641)" font-family="'MyriadPro-Regular'" font-size="12">63</text>
	<text transform="matrix(1 0 0 1 165.3335 667)" font-family="'MyriadPro-Regular'" font-size="12">64</text>
	<text transform="matrix(1 0 0 1 106.6665 685)" font-family="'MyriadPro-Regular'" font-size="12">65</text>
</g>
</svg>
