<?xml version="1.0" encoding="utf-8"?>
<!-- Generator: Adobe Illustrator 21.0.0, SVG Export Plug-In . SVG Version: 6.00 Build 0)  -->
<svg version="1.1" id="Layer_1" xmlns="http://www.w3.org/2000/svg" xmlns:xlink="http://www.w3.org/1999/xlink" x="0px" y="0px"
	 viewBox="0 0 595.3 637.8" style="enable-background:new 0 0 595.3 637.8;" xml:space="preserve">
<style type="text/css">
	.st0{fill:none;stroke:#000000;stroke-miterlimit:10;}
	.st1{fill:#ABC6C0;stroke:#000000;stroke-miterlimit:10;}
	.st2{fill:#E5ACC1;stroke:#000000;stroke-miterlimit:10;}
	.st3{fill:#7BA39B;stroke:#000000;stroke-miterlimit:10;}
	.st4{fill:#11A58D;stroke:#000000;stroke-miterlimit:10;}
	.st5{fill:#E73F74;stroke:#000000;stroke-miterlimit:10;}
	.st6{font-family:'MyriadPro-Regular';}
	.st7{font-size:12px;}
</style>
<g>
	<line class="st0" x1="303.6" y1="324.9" x2="320.8" y2="366.2"/>
	<line class="st0" x1="326.8" y1="409.4" x2="320.8" y2="366.2"/>
	<line class="st0" x1="317.9" y1="462.8" x2="326.8" y2="409.4"/>
	<line class="st0" x1="350.2" y1="449.7" x2="326.8" y2="409.4"/>
	<line class="st0" x1="377.2" y1="415.4" x2="326.8" y2="409.4"/>
	<line class="st0" x1="377.2" y1="493.4" x2="350.2" y2="449.7"/>
	<line class="st0" x1="370.8" y1="535.7" x2="377.2" y2="493.4"/>
	<line class="st0" x1="346.1" y1="577.5" x2="350.2" y2="449.7"/>
	<line class="st0" x1="394" y1="577.5" x2="370.8" y2="535.7"/>
	<line class="st0" x1="346.1" y1="577.5" x2="370.8" y2="535.7"/>
	<line class="st0" x1="303.6" y1="323.2" x2="338.2" y2="327.5"/>
	<line class="st0" x1="358.8" y1="362.2" x2="338.2" y2="327.5"/>
	<line class="st0" x1="396.7" y1="612.8" x2="394" y2="577.5"/>
	<line class="st0" x1="457.9" y1="622.6" x2="394" y2="577.5"/>
	<line class="st0" x1="445.9" y1="577.5" x2="394" y2="577.5"/>
	<line class="st0" x1="557.1" y1="602.5" x2="445.9" y2="577.5"/>
	<line class="st0" x1="536.3" y1="511.8" x2="520" y2="471.6"/>
	<line class="st0" x1="557.1" y1="434.8" x2="511.1" y2="434.8"/>
	<line class="st0" x1="572.8" y1="384.2" x2="532" y2="394.3"/>
	<line class="st0" x1="526" y1="359" x2="572.8" y2="384.2"/>
	<line class="st0" x1="526" y1="359" x2="532" y2="394.3"/>
	<line class="st0" x1="457.9" y1="335.1" x2="526" y2="359"/>
	<line class="st0" x1="390.7" y1="336.9" x2="429.9" y2="378.2"/>
	<line class="st0" x1="457.9" y1="335.1" x2="390.7" y2="336.9"/>
	<line class="st0" x1="338.2" y1="327.5" x2="390.7" y2="336.9"/>
	<line class="st0" x1="480.1" y1="451.9" x2="429.9" y2="378.2"/>
	<line class="st0" x1="457.9" y1="335.1" x2="471" y2="394.3"/>
	<line class="st0" x1="429.9" y1="378.2" x2="471" y2="394.3"/>
	<line class="st0" x1="490.9" y1="481.5" x2="479.4" y2="450.9"/>
	<line class="st0" x1="439.9" y1="477.8" x2="429.9" y2="378.2"/>
	<line class="st0" x1="396.7" y1="456.9" x2="439.9" y2="477.8"/>
	<line class="st0" x1="377.2" y1="415.4" x2="396.7" y2="456.9"/>
	<line class="st0" x1="377.2" y1="493.4" x2="406" y2="507.1"/>
	<line class="st0" x1="448.2" y1="533.3" x2="406" y2="507.1"/>
	<line class="st0" x1="483" y1="523.8" x2="450.5" y2="533.3"/>
	<line class="st0" x1="511.1" y1="434.8" x2="471" y2="394.3"/>
	<circle class="st1" cx="303.6" cy="324.9" r="6"/>
	<circle class="st2" cx="338.2" cy="327.5" r="6"/>
	<circle class="st1" cx="320.8" cy="366.2" r="6"/>
	<circle class="st1" cx="326.8" cy="409.4" r="6"/>
	<circle class="st3" cx="358.8" cy="362.2" r="6"/>
	<circle class="st2" cx="390.7" cy="336.9" r="6"/>
	<circle class="st1" cx="317.9" cy="462.8" r="6"/>
	<circle class="st3" cx="350.2" cy="449.7" r="6"/>
	<circle class="st2" cx="377.2" cy="415.4" r="6"/>
	<circle class="st4" cx="377.2" cy="493.4" r="6"/>
	<circle class="st5" cx="511.1" cy="434.8" r="6"/>
	<circle class="st4" cx="490.9" cy="481.5" r="6"/>
	<circle class="st5" cx="406" cy="507.1" r="6"/>
	<circle class="st5" cx="396.7" cy="455.7" r="6"/>
	<circle class="st4" cx="429.9" cy="378.2" r="6"/>
	<circle class="st5" cx="471" cy="394.3" r="6"/>
	<circle class="st5" cx="457.9" cy="335.1" r="6"/>
	<circle class="st4" cx="370.8" cy="535.7" r="6"/>
	<circle class="st3" cx="536.3" cy="511.8" r="6"/>
	<circle class="st5" cx="439.9" cy="477.8" r="6"/>
	<circle class="st3" cx="346.1" cy="577.5" r="6"/>
	<circle class="st4" cx="445.9" cy="577.5" r="6"/>
	<circle class="st5" cx="483" cy="523.8" r="6"/>
	<circle class="st3" cx="557.1" cy="434.8" r="6"/>
	<circle class="st5" cx="448.2" cy="533.3" r="6"/>
	<circle class="st4" cx="394" cy="577.5" r="6"/>
	<circle class="st2" cx="532" cy="394.3" r="6"/>
	<circle class="st2" cx="526" cy="359" r="6"/>
	<circle class="st3" cx="557.1" cy="602.5" r="6"/>
	<circle class="st5" cx="396.7" cy="612.8" r="6"/>
	<circle class="st5" cx="457.9" cy="622.6" r="6"/>
	<circle class="st2" cx="572.8" cy="384.2" r="6"/>
	<line class="st0" x1="520" y1="471.6" x2="479" y2="450.9"/>
	<circle class="st4" cx="479" cy="450.9" r="6"/>
	<circle class="st3" cx="520" cy="471.6" r="6"/>
</g>
<text transform="matrix(1 0 0 1 311 332)" class="st6 st7">0</text>
<text transform="matrix(1 0 0 1 348.25 333.75)" class="st6 st7">1</text>
<text transform="matrix(1 0 0 1 326.25 355.75)" class="st6 st7">2</text>
<text transform="matrix(1 0 0 1 402.25 327)" class="st6 st7">3</text>
<text transform="matrix(1 0 0 1 367.75 356.5)" class="st6 st7">4</text>
<text transform="matrix(1 0 0 1 333.25 399)" class="st6 st7">5</text>
<text transform="matrix(1 0 0 1 472.25 330.25)" class="st6 st7">6</text>
<text transform="matrix(1 0 0 1 436.25 368.5)" class="st6 st7">7</text>
<text transform="matrix(1 0 0 1 378.75 400.75)" class="st6 st7">8</text>
<text transform="matrix(1 0 0 1 353 436.5)" class="st6 st7">9</text>
<text transform="matrix(1 0 0 1 324 450)" class="st6 st7">10</text>
<text transform="matrix(1 0 0 1 535.333 346)" class="st6 st7">11</text>
<text transform="matrix(1 0 0 1 480.333 383.333)" class="st6 st7">12</text>
<text transform="matrix(1 0 0 1 444 468.8221)" class="st6 st7">13</text>
<text transform="matrix(1 0 0 1 401.333 444.667)" class="st6 st7">14</text>
<text transform="matrix(1 0 0 1 381.667 482.667)" class="st6 st7">15</text>
<text transform="matrix(1 0 0 1 326.7772 573.0019)" class="st6 st7">16</text>
<text transform="matrix(1 0 0 1 581 370.333)" class="st6 st7">17</text>
<text transform="matrix(1 0 0 1 542.667 399)" class="st6 st7">18</text>
<text transform="matrix(1 0 0 1 514.667 423)" class="st6 st7">19</text>
<text transform="matrix(1 0 0 1 484.667 440.333)" class="st6 st7">20</text>
<text transform="matrix(1 0 0 1 410.2951 499.4293)" class="st6 st7">21</text>
<text transform="matrix(1 0 0 1 378 528.667)" class="st6 st7">22</text>
<text transform="matrix(1 0 0 1 567 426.333)" class="st6 st7">23</text>
<text transform="matrix(1 0 0 1 526.667 462)" class="st6 st7">24</text>
<text transform="matrix(1 0 0 1 500.667 482.333)" class="st6 st7">25</text>
<text transform="matrix(1 0 0 1 446.667 518)" class="st6 st7">26</text>
<text transform="matrix(1 0 0 1 398.333 565.333)" class="st6 st7">27</text>
<text transform="matrix(1 0 0 1 551.667 512.333)" class="st6 st7">28</text>
<text transform="matrix(1 0 0 1 495.667 527)" class="st6 st7">29</text>
<text transform="matrix(1 0 0 1 455.333 567)" class="st6 st7">30</text>
<text transform="matrix(1 0 0 1 457.8989 613.7576)" class="st6 st7">31</text>
<text transform="matrix(1 0 0 1 401.667 605.333)" class="st6 st7">32</text>
<text transform="matrix(1 0 0 1 560 591.333)" class="st6 st7">33</text>
</svg>
